<!--
	Created with Bing Image Creator, vectorized with Recraft.ai and optimized with SVGOMG
-->
<svg xmlns="http://www.w3.org/2000/svg" style="color-scheme:dark light" viewBox="32 32 960 960">
	<path fill="#016E93" d="M182.6 39.2h2.7c51.3-1 102.8-.2 154.1-.2h471.4c15.3 0 30.6-.1 45.7 2.5l5.5 1.1 5.6 1.3 5.5 1.5 5.4 1.6 5.3 2 5.3 2 5.2 2.3 5.1 2.5 5 2.6 5 2.9q2.4 1.4 4.7 3l4.7 3.2 4.6 3.4 4.4 3.5 4.3 3.7 4.2 3.9a142.8 142.8 0 0 1 44.1 101c.3 17.1 0 34.4 0 51.6l-.1 95.8v465.5l.1 39.5c0 12 .4 24.1-1.6 36l-1 5.4-1.2 5.4-1.4 5.3-1.6 5.2-1.8 5.2-2 5.1q-1 2.6-2.2 5l-2.4 5-2.6 4.9-2.8 4.7-3 4.6-3 4.6-3.4 4.4-3.4 4.2-3.7 4.1-3.8 4c-29.4 30.1-67.3 43.6-108.8 44H233.2c-25.8 0-56.4 1.6-81.8-2.6q-2.6-.4-5.1-1l-5-1-5-1.3-5-1.5-4.8-1.6-4.9-1.8-4.7-2q-2.4-1-4.7-2.2-2.3-1-4.6-2.3l-4.5-2.4-4.4-2.7q-2.2-1.3-4.3-2.8-2.2-1.4-4.3-3l-4-3-4-3.2-4-3.4a141.2 141.2 0 0 1-46-97.4c-.8-17.8-.2-35.8-.2-53.6V201.1c-.1-13-.5-26.4 1.6-39.4l.9-5.2 1.1-5.1 1.3-5.1 1.6-5 1.7-5 1.8-5 2.1-4.9 2.3-4.8 2.4-4.7 2.6-4.5 2.8-4.5q1.4-2.3 3-4.4l3-4.3 3.3-4.2 3.4-4 3.6-3.9c30.2-32.3 68.7-46.5 112.2-47.9Z"/>
	<path fill="#FCC203" d="M886 363.2c4.4-.2 8.5.7 12 3.3 4.3 3.2 7.1 8.3 7.9 13.5.7 5.3-.7 10.8-4 15l-1 1-1 1-1 .9-1.1.8-1.2.7-1.2.6-1.3.5-1.3.4c-7 2-15.6 1.6-22.9 2.2q-22.9 1.8-45.7 3.8c-5.2.2-9.8-.9-13.8-4.3s-6.2-8.6-6.5-13.8c-.3-5.4 1.2-10.9 5-15a18 18 0 0 1 8.4-5.2c6.8-1.8 14.8-1.5 21.9-2l46.8-3.4ZM618.6 143.6a19.1 19.1 0 0 1 20.2 15.5c3.3 12.3 5.3 25.2 7.9 37.7 2.4 11.7 6.7 24.7 6.5 36.5 0 2.5-1 4.8-2.3 6.9a22 22 0 0 1-14.3 9.4 22 22 0 0 1-12.4-2.8 20.2 20.2 0 0 1-6.6-6.8c-3.6-6.6-5.8-23.3-7.5-31.4-2-9.7-9.7-41.4-9.3-49.2.2-2.6 1.5-5.3 2.9-7.3 3.6-5.3 8.9-7.3 14.9-8.5ZM833.8 232.6a21.3 21.3 0 0 1 22.4 12.3c2.2 4.7 2.3 9.8.3 14.6-1.2 2.8-4 5.7-6.2 8-8 8.2-16.9 15.9-25.2 23.9-8.4 8.2-16.7 17.4-26 24.7a21.8 21.8 0 0 1-6 3.2c-4.5.8-8.7.8-13-1.2-5.1-2.2-8.4-7-10.2-12-1.5-4.3-1.6-9.9.6-14 1.5-2.7 3.8-5.4 6-7.7 8.8-9.5 18.6-18.3 27.9-27.4 6.8-6.7 13.4-14.5 21-20.3a25 25 0 0 1 8.4-4.1ZM736.9 153.1a20 20 0 0 1 22.4 14.3c.9 3 .3 6.7-.3 9.7-.9 4.8-2.5 9.5-3.8 14.2l-8.1 29.5c-2 7.2-6.6 27.8-9.7 33a20.4 20.4 0 0 1-26 7c-4.4-2.3-7.3-6.1-8.7-10.8-1.2-3.5-.7-7.1 0-10.7 2.3-13.6 7-27.5 10.7-40.8 2.4-8.6 7-30 10.7-36.8 2.7-4.9 7.7-7 12.8-8.6Z"/>
	<path fill="#021425" d="M440.5 243.2a169 169 0 0 1 45.7 4.1c19.4 4.6 38.2 11.8 57 18.4l80.7 28.5 51.4 17.7c13.1 4.5 26.6 8.6 38.9 15.2a94.8 94.8 0 0 1 47.1 56.3l.6 2.1.5 2.2.5 2.1.5 2.1.3 2.2.4 2.2.2 2.2.2 2.2.2 2.1.1 2.2V411.6l-.1 2.2-.2 2.2-.2 2.2-.3 2.2-.3 2.1-.4 2.2-.5 2.2-.5 2.1-.5 2.1-.6 2.1-.7 2.1-.7 2.1-.8 2-.8 2.1-.8 2-1 2-1 2-1 2q-.4 1-1 1.9a93.5 93.5 0 0 1-57.5 43.2l1.6.4c23.7 6 46 24.2 58.2 45a98.3 98.3 0 0 1 9.5 74.3 102 102 0 0 1-28.3 47.8c-15 14.7-37.9 29-55.4 41.2L604.9 757l-103 73c-18.9 13.2-37.6 26.7-57.4 38.5l196.1.2h49.7c8 .1 17.6-.7 25.4 1.2 2.9.6 5.5 2.6 7 5.1 2.1 3.6 2 6.4 1 10.3l-1 2a14.7 14.7 0 0 1-10.2 5.8c-8.6 1.4-18.5.1-27.2.2H342.4l-131.9-.1h-37.8c-7.2 0-14.7.5-21.9 0-3-.3-6.6-1-9-3a11.5 11.5 0 0 1-4-7.7c-.4-3.4.6-7 2.9-9.6 1.3-1.5 3-2.5 4.9-3 7.5-2 16.2-1 24-1 11 .1 22.4.3 33.5-.6h.6a215.4 215.4 0 0 1-22.4-16.7l-3.2-2.8-3-2.9q-1.6-1.4-3.1-3l-3-3-2.9-3.1-2.8-3.2-2.7-3.2-2.7-3.4-2.6-3.3-2.5-3.5-2.4-3.5-2.3-3.6-2.2-3.6-2.1-3.7-2-3.7-2-3.8-1.9-3.8-1.7-3.9-1.7-3.9-1.5-4-1.5-4-1.4-4-1.2-4-1.2-4.1-1-4.1-1-4.2-.8-4.2-.8-4.1-.6-4.2-.6-4.3-.4-4.2-.3-4.2q-.6-7.8-.6-15.7 0-7.8.4-15.6.5-7.8 1.6-15.6 1-7.8 2.6-15.4a495.5 495.5 0 0 1 23.6-76.7q5.3-14.2 10.9-28.3 5.6-14.1 11.7-28 6-14 12.5-27.7t13.4-27.3q6.8-13.5 14.1-26.8 7.3-13.4 15-26.5 7.6-13 15.7-26 8-12.8 16.5-25.4a678.3 678.3 0 0 1 53.3-71.6 182 182 0 0 1 127.6-63.2Z"/>
	<path fill="#016E93" d="M589 478.7c6.8 1.1 14 4.4 20.5 6.8q12.6 4.4 25.3 8.6c-7 2.5-14 5-20.6 8.4-9.7 4.8-19 11.3-27.8 17.5 2.2-13.6 2.3-27.6 2.6-41.3Z"/>
	<path fill="#FEFEF9" d="M366.9 594.4c3.3-2.9 6-4.8 10.7-4.5 6.4.4 27.4 10 34.9 13 12.4 4.8 25 10.2 38.2 12.5 33.8 6 77.7-4 104.1-26.5 7-5.8 13-12.5 20-18.4 8.3-7.2 17.7-13.4 26.8-19.7 22.9-15.6 41.4-28 70.6-25.7a67.8 67.8 0 0 1 47.6 23.6c10 11.9 16.2 28.4 14.7 44.1-.2 2-.6 3.7-1 5.6a21 21 0 0 1-10.2 5c-13-4.8-9.2-11.5-11.2-22.2-1.4-8-6.3-16.3-12.2-21.8a52.4 52.4 0 0 0-55.6-9.2c-9.7 3.9-18.1 10-26.6 16-11.4 8.2-23 16.1-34 24.9-13 10.5-24 21.4-39 29.5-21 11.4-48 16.9-71.7 17.2-10.7.2-21.6-.5-32-2.7-16-3.3-31.2-10.1-46.3-16-7.6-2.9-15.8-5.5-23-9.2-1.6-.9-3-2-4.3-3.2a18.7 18.7 0 0 1-.5-12.3Z"/>
	<path fill="#ED750E" d="M479.3 439c9.6 3 19.1 6.7 28.6 10 16 5.6 32 11 47.7 17.3-.3 9.9-1.6 20-2.3 29.9-1 13.1-.8 28.5-4 41.1q-.6 2.2-1.4 4.3l-1.8 4-2.1 4q-1.2 1.9-2.6 3.6c-13.7 18.3-37.8 28-59.8 31.2-7.3.6-14.4.4-21.6-.9-15.3-2.8-38.3-12.8-53.7-18.6 7-11 13.2-22.8 19.8-34.1q26.1-46.1 53.2-91.7Z"/>
	<path fill="#FCC203" d="m489 467.6 3.2-.2a63 63 0 0 1 32 13.7c.5 2.1.8 4.3.8 6.5 0 7-1.2 14.1-1.7 21-1.3 18.2-1.3 36-15.1 49.6a44.4 44.4 0 0 1-33.9 12.3 96.4 96.4 0 0 1-35.9-12c.3-2.5.6-4.9 1.3-7.2 3.5-11.1 18.7-35.4 25-46.7 5.8-10.3 11-21.7 17.8-31.3 2-2.6 3.6-4.2 6.5-5.7Z"/>
	<path fill="#ED750E" d="M723.3 603.4a21 21 0 0 0 10.1-5 69 69 0 0 1-28.4 46.7c-18.8 14.8-39.6 28.6-59.3 42.3l-68.8 48.3-90.5 64c-25.1 17.4-49.2 36.2-78 47.1-36.7 14-88.2 17.9-126.8 13.1a141.8 141.8 0 0 1-96.3-53.3c-9-11.5-15.4-23.8-20.6-37.4 3.3 2.3 6 4.1 10.2 3.4a16 16 0 0 0 3.7-1.2 29 29 0 0 1 12.3 3.8c6 3.8 10.4 10.7 15.2 16q3 3.4 6.4 6.6 3.3 3.3 6.9 6.2 3.6 3 7.3 5.7 3.8 2.8 7.7 5.2 4.4 2.6 9 4.9 4.5 2.2 9.2 4.1 4.7 1.9 9.6 3.3 4.9 1.4 9.8 2.4c27.8 6 78.6 4 106.4-2.8 15.6-3.9 29.8-9.4 43.6-17.5 9.9-5.7 18.9-12.5 28.2-19l44.3-31.3q46-31.8 91.2-64.4c6.6-4.8 13.6-9 20-14a34 34 0 0 0 8.5-9c3 2.3 6.3 3.8 10 3.7 3.5-.1 6.8-1.6 9-4.2 2.6-3.1 3.3-7.1 3-11 5.5-5.2 12.6-9.3 18.7-13.7q13-9.5 26.2-18.7c5.8-4.1 11.6-8.6 17.8-12.1 7.8-4.6 16.5-7.7 24.4-12.2Z"/>
	<path fill="#FEFEF9" d="M164.7 769.2c-7.5-12.7-9.6-38-9.5-52.7.2-38 13.1-74 26.2-109.2q5.6-15.6 11.8-31 6.2-15.4 12.9-30.6 6.6-15.2 13.8-30.2 7.3-15 15-29.6 7.7-14.7 16-29.1 8.2-14.5 16.9-28.6 8.7-14.1 17.9-28 9.2-13.8 18.8-27.3c13.4-19 27-38.3 43.5-54.6 27-26.6 64.3-43 102.4-42.7 9.7.1 19 1.6 28.3 4.2 15 4.2 29.8 10.1 44.6 15.3l76 26.8 60 21c11.3 4 23.2 7.2 34.1 12.1q2.8 1.2 5.4 2.7 2.6 1.5 5.1 3.2 2.5 1.7 4.8 3.7t4.4 4.1a58.2 58.2 0 0 1 17 40.2c-1.5 4.3-3.3 8.4-7.6 10.3a17.3 17.3 0 0 1-8.8 1l-.5-.4a12.4 12.4 0 0 1-4.1-4.5c-1.7-3.6-1.8-8.3-2.4-12.2a38.9 38.9 0 0 0-16.7-24.7c-9.5-6.5-37.2-14.5-49.8-19q-36.4-13.1-73-25.9l-63.1-22c-11.5-4-22.9-9-34.7-12a95 95 0 0 0-34.4-1.7c-38 4.6-67.7 27.3-90.5 56.7q-5.6 7.2-11 14.5l-10.7 14.7q-5.3 7.4-10.4 14.9l-10.1 15.1-9.9 15.3-9.5 15.4-9.3 15.7-9 15.8-8.6 16q-4.3 8-8.4 16.1l-8 16.3q-4 8.2-7.8 16.5-3.8 8.2-7.4 16.5-3.7 8.4-7.1 16.8l-6.8 16.8q-3.4 8.5-6.5 17c-15.1 39.4-32 84.2-26.5 127 .4 3.4.8 6.8 1.6 10 1.6 7 6.5 18 1.5 24.2l-2 2.3a16 16 0 0 1-3.7 1.2c-4.2.7-7-1.1-10.2-3.4Z"/>
	<path fill="#FCC203" d="m178.6 771.4 2-2.3c5-6.3.1-17.2-1.5-24.1-.8-3.3-1.2-6.7-1.6-10-5.5-43 11.4-87.7 26.5-127.1q3.1-8.5 6.5-17l6.8-16.8 7-16.8 7.5-16.5q3.8-8.3 7.8-16.5l8-16.3L256 492l8.7-16q4.4-8 9-15.8 4.5-7.9 9.2-15.7l9.5-15.4 9.9-15.3 10.1-15.1q5.1-7.5 10.4-14.9l10.7-14.7q5.4-7.3 11-14.5c22.8-29.4 52.5-52 90.5-56.7a95 95 0 0 1 34.4 1.8c11.8 2.9 23.2 7.8 34.7 11.9l63.2 22q36.5 12.8 72.9 26c12.6 4.4 40.3 12.4 49.8 19 8.1 5.5 15.3 14.8 16.7 24.6.6 4 .7 8.6 2.4 12.2 1 2 2.4 3.2 4 4.5l.6.4c3 .3 6 .3 8.8-1 4.3-2 6-6 7.5-10.3.4 3.3 0 6.7-.6 10a56.5 56.5 0 0 1-24.9 35 69.8 69.8 0 0 1-46.4 10.7c-17.7-1.6-34.3-9-50.8-14.9l-94.7-33.2-24.7-8.7c-5.4-2-11-4.3-16.6-5.4l-.7-.1c-5.8 1.2-10.1 3.1-13.5 8.2-2.6 4-4 8.9-6.7 12.9-16.6 29.9-34.1 59.4-51.2 89L380 545.5c-4.7 8.3-9.2 16.5-14.4 24.5-2.6 5.4-5.8 11.7-3.4 17.8 1 2.4 2.5 4.4 4.2 6.3l.5.3c-1.2 4.5-1 8 .5 12.3 1.4 1.3 2.7 2.3 4.3 3.2 7.2 3.7 15.4 6.3 23 9.2 15 5.9 30.4 12.7 46.2 16 10.5 2.2 21.4 2.9 32 2.7 23.8-.3 50.8-5.8 71.8-17.2 15-8.1 26-19 39-29.5 11-8.8 22.6-16.7 34-24.8 8.5-6 16.9-12.2 26.6-16 18.7-7.5 40.8-5.2 55.6 9a42.7 42.7 0 0 1 12.2 22c2 10.6-1.8 17.3 11.2 22.1-8 4.5-16.6 7.6-24.4 12.2-6.2 3.5-12 8-17.8 12.1Q668 637 655 646.4c-6.1 4.4-13.2 8.5-18.6 13.6.2 4-.5 8-3 11a12.2 12.2 0 0 1-9 4.3c-3.8.1-7.2-1.4-10.1-3.6a34 34 0 0 1-8.5 9c-6.4 5-13.4 9-20 13.9q-45.3 32.6-91.2 64.4l-44.3 31.3c-9.3 6.5-18.3 13.3-28.2 19-13.8 8-28 13.6-43.6 17.5-27.8 6.9-78.6 8.7-106.4 2.8q-5-1-9.8-2.4-4.9-1.4-9.6-3.3-4.7-1.9-9.3-4.1-4.5-2.3-8.9-5-4-2.3-7.7-5-3.7-2.8-7.3-5.8-3.6-3-6.9-6.2-3.3-3.2-6.4-6.7c-4.8-5.2-9.2-12-15.2-16a29 29 0 0 0-12.3-3.7Z"/>
	<path fill="#FEFEF9" d="M519 330.5h1c4.5.7 7.4 3 10 6.6 0 3 .5 6-.8 9-1.6 3.6-5 5-8.4 6.3-1.8-.1-3.5-.3-5.2-1.1-2.8-1.3-5-3.5-6-6.4l-.3-1-.2-1v-3l.3-1 .3-.9.4-1c1.9-3.8 4.9-5.3 8.8-6.5Z"/>
	<path fill="#8F3322" d="M324.5 568.6c13.7.9 27.4.2 41 1.4-2.5 5.4-5.7 11.7-3.3 17.8 1 2.4 2.5 4.4 4.2 6.3-6 1-13.3.1-19.4.1-6.7 0-13.7.5-20.4-.2-2-.3-4-.7-5.8-1.7a12.3 12.3 0 0 1-6.2-7.7c-1-3.3-.6-6.9 1.1-9.9 2-3.5 5-5.1 8.8-6.1ZM416 377.3c8 1.6 15.5 6.7 22.5 10.6 5.7 3.4 26.5 14 32.1 14.4-5.8 1.2-10.1 3.1-13.5 8.2-2.6 4-4 8.9-6.7 12.9-3-3.7-19.6-10.3-24.7-12.7-4-2.2-8.2-3.9-12.3-6-4.1-2-8.1-4.9-9.5-9.6-1-3.5-.5-7.9 1.3-11 2.3-4.1 6.5-5.7 10.8-6.8ZM614.2 671.7q-9.2-15-19-29.5c-4.9-7.5-10.9-15.2-14.4-23.5-1.4-3.5-1.7-6.9 0-10.4a13 13 0 0 1 7.5-6.9c3-1 6.1-1 9 .4 2.6 1.3 4.7 3.4 6.4 5.7 5.3 6.7 9.5 14.7 14 22 5.8 9 14.9 20.8 18.6 30.5.2 4-.5 8-3 11a12.2 12.2 0 0 1-9 4.3c-3.8.1-7.2-1.4-10.1-3.6Z"/>
	<path fill="#ED750E" d="M425.7 410.7c5 2.4 21.8 9 24.7 12.7-16.6 29.9-34.1 59.4-51.2 89L380 545.5c-4.7 8.3-9.2 16.5-14.4 24.5-13.7-1.2-27.4-.5-41-1.4 4.5-17 16.5-8.4 26-25.5l36.3-64.6c13-22.6 26.3-45 38.8-67.8ZM438.5 387.9c1.7-6.8 4.3-13.5 10.6-17.3 4.8-2.8 9.8-2.8 15-1.4 12.6 3.5 25 9 37.4 13.3q51.2 17.6 102.2 36c16.8 6 40.6 16.1 57.7 18a52 52 0 0 0 30-6.2c3.7-2.1 7.4-4.8 11.4-6.4 3.5-1.4 7.5-2 10.9-3.7 3 .3 6 .3 8.8-1 4.3-2 6-6 7.5-10.3.4 3.3 0 6.7-.6 10a56.5 56.5 0 0 1-24.9 35 69.8 69.8 0 0 1-46.4 10.7c-17.7-1.6-34.3-9-50.8-14.9l-94.7-33.2-24.7-8.7c-5.4-2-11-4.3-16.6-5.4l-.7-.1c-5.6-.4-26.4-11-32.1-14.4Z"/>
</svg>
